<svg width="43" height="43" fill="none" xmlns="http://www.w3.org/2000/svg">
  <circle cx="21.5" cy="21.5" fill="#fff" r="21.5"/>
  <path d="M30.9 26v-.2c-.4-.6-1-1.3-2-2.2h-.1l-.9-.9c-.2-.2-.2-.5-.1-.8 0-.2.4-.6 1-1.3l.6-.9c1.2-1.5 1.7-2.5 1.6-3l-.4-.2h-3.7-.2-.1l-.1.1-.1.1-.1.2a16.1 16.1 0 01-2.4 4l-.4.4h-.3-.1a.7.7 0 01-.3-.2 1 1 0 01-.1-.4 4.2 4.2 0 010-.9 14.4 14.4 0 000-1.3 140.5 140.5 0 01-.1-2l-.2-.2-.4-.2-1.4-.1a7 7 0 00-2.5.2l-.4.3v.3c.4 0 .7.2.9.4v.1l.2.5v.7a7.5 7.5 0 01-.2 2.6v.2h-.8l-.4-.4-.5-.7-.6-1-.2-.4a24.6 24.6 0 01-1.1-2.1l-.2-.2H11.7c-.3 0-.5 0-.6.2l-.1.2v.3a32.6 32.6 0 004.8 7.6l.3.2.7.6 1.1.6a6 6 0 002.9.7H22c.2 0 .4 0 .5-.2l.2-.2v-.3-.8l.2-.5a1.3 1.3 0 01.4-.4h.7l.6.7a18.2 18.2 0 001.5 1.4l.2.1.5.2H30.7l.3-.4v-.3l-.1-.3z" fill="#000"/>
</svg>
